<?xml version="1.0" encoding="UTF-8"?>
<svg xmlns="http://www.w3.org/2000/svg" id="Filled" viewBox="0 0 512 512" width="512" height="512"><path d="M488,160v64a32,32,0,0,1-32,32H336c0,40-48,48-48,48q16-24,0-48H264a32,32,0,0,1-32-32V160a32,32,0,0,1,32-32H456A32,32,0,0,1,488,160Z" style="fill:#a1d3f5"/><path d="M168,24H128a96,96,0,0,0-96,96V320a96,96,0,0,0,96,96h40a16,16,0,0,0,16-16V309.389a16,16,0,0,0-13.18-15.749l-16.461-2.948A32,32,0,0,1,128,259.193V180.807a32,32,0,0,1,26.359-31.5l16.461-2.948A16,16,0,0,0,184,130.611V40A16,16,0,0,0,168,24Z" style="fill:#e8423f"/><path d="M128,180.81v78.38a31.988,31.988,0,0,0,24,30.98V416H128a96,96,0,0,1-96-96V120a96,96,0,0,1,96-96h24V149.83A31.988,31.988,0,0,0,128,180.81Z" style="fill:#e8423f"/><path d="M184,40v90.61a16,16,0,0,1-13.18,15.75l-16.46,2.95c-.8.14-1.59.32-2.36.52V24h16A16,16,0,0,1,184,40Z" style="fill:#cf3330"/><path d="M184,309.39V400a16,16,0,0,1-16,16H152V290.17c.77.2,1.56.38,2.36.52l16.46,2.95A16,16,0,0,1,184,309.39Z" style="fill:#cf3330"/><path d="M496,224V160a40.045,40.045,0,0,0-40-40H264a40.045,40.045,0,0,0-40,40v64a40.045,40.045,0,0,0,40,40h19.519c6.651,12.017,5.926,23.41-2.175,35.562a8,8,0,0,0,7.971,12.329,87.147,87.147,0,0,0,26.716-9.981c15.71-9.164,25.061-22.163,27.392-37.91H456A40.045,40.045,0,0,0,496,224ZM336,248a8,8,0,0,0-8,8c0,19.231-13.758,29.625-25.4,34.977,3.284-13.178.637-26.551-7.939-39.415A8,8,0,0,0,288,248H264a24.028,24.028,0,0,1-24-24V160a24.028,24.028,0,0,1,24-24H456a24.028,24.028,0,0,1,24,24v64a24.028,24.028,0,0,1-24,24Z"/><path d="M440,152H296a8,8,0,0,0,0,16H440a8,8,0,0,0,0-16Z"/><path d="M440,184H280a8,8,0,0,0,0,16H440a8,8,0,0,0,0-16Z"/><path d="M408,216H280a8,8,0,0,0,0,16H408a8,8,0,0,0,0-16Z"/><circle cx="440" cy="224" r="8"/><path d="M24,120V320a104.164,104.164,0,0,0,88.241,102.808c1.261,19.035,7.794,36.336,18.743,49.271C144.042,487.5,162.87,496,184,496c17.779,0,40.719-10.264,55.705-21.454C251.056,484.885,264.229,496,288,496s36.944-11.115,48.3-21.454C351.281,485.736,374.221,496,392,496a8,8,0,0,0,0-16c-13.551,0-32.76-8.525-45.353-17.7,5.715-9.155,12.966-22.859,13.328-37.145.02-.383.025-.774.025-1.154a24,24,0,0,0-48,0c0,.38,0,.771.025,1.154.367,14.476,7.807,28.355,13.555,37.508C315.226,472.1,305.8,480,288,480s-27.226-7.9-37.58-17.338c5.748-9.153,13.188-23.032,13.555-37.508.02-.383.025-.774.025-1.154a24,24,0,0,0-48,0c0,.38,0,.771.025,1.154.363,14.286,7.613,27.99,13.328,37.145C216.76,471.475,197.551,480,184,480c-16.583,0-30.692-6.314-40.8-18.259-8.317-9.825-13.448-23.02-14.814-37.741H168a24.027,24.027,0,0,0,24-24V309.389a23.977,23.977,0,0,0-19.77-23.624l-16.46-2.948A23.977,23.977,0,0,1,136,259.193V180.807a23.977,23.977,0,0,1,19.77-23.624l16.46-2.948A23.977,23.977,0,0,0,192,130.611V40a24.027,24.027,0,0,0-24-24H128A104.118,104.118,0,0,0,24,120ZM336,416a8.009,8.009,0,0,1,8,8c0,.1,0,.2,0,.243-.01.134-.016.269-.019.4-.18,8.334-4,17.109-7.982,24.233-3.982-7.124-7.8-15.9-7.982-24.233,0-.134-.006-.216-.016-.35,0-.1,0-.2,0-.3A8.009,8.009,0,0,1,336,416Zm-96,0a8.009,8.009,0,0,1,8,8c0,.1,0,.2,0,.243-.01.134-.016.269-.019.4-.18,8.334-4,17.109-7.982,24.233-3.982-7.124-7.8-15.9-7.982-24.233,0-.134-.006-.216-.016-.35,0-.1,0-.2,0-.3A8.009,8.009,0,0,1,240,416ZM176,309.389V400a8.009,8.009,0,0,1-8,8h-8V299.829l9.41,1.685A7.993,7.993,0,0,1,176,309.389ZM176,40v90.611a7.993,7.993,0,0,1-6.59,7.875L160,140.171V32h8A8.009,8.009,0,0,1,176,40Zm-48-8h16V144.146a39.959,39.959,0,0,0-24,36.661v78.386a39.959,39.959,0,0,0,24,36.661V408H128a88.1,88.1,0,0,1-88-88V120A88.1,88.1,0,0,1,128,32Z"/></svg>
