<svg id="Capa_1" enable-background="new 0 0 512 512" height="512" viewBox="0 0 512 512" width="512" xmlns="http://www.w3.org/2000/svg"><g><path d="m119.367 80.06v-12c0-4.142-3.358-7.5-7.5-7.5s-7.5 3.358-7.5 7.5v12c0 4.142 3.358 7.5 7.5 7.5s7.5-3.358 7.5-7.5z"/><path d="m244.264 80.06v-12c0-4.142-3.358-7.5-7.5-7.5s-7.5 3.358-7.5 7.5v12c0 4.142 3.358 7.5 7.5 7.5s7.5-3.358 7.5-7.5z"/><path d="m196.434 84.63c2.721-3.123 2.396-7.86-.727-10.582-3.123-2.721-7.86-2.396-10.582.727-5.726 6.571-15.898 6.565-21.62 0-2.721-3.123-7.459-3.448-10.582-.727s-3.448 7.458-.727 10.582c11.705 13.431 32.545 13.418 44.238 0z"/><path d="m126.559 141.572v228.855c0 8.271 6.729 15 15 15h31.742c71.005 0 128.771-58.061 128.771-129.427 0-71.367-57.767-129.429-128.771-129.429h-31.742c-8.271.001-15 6.73-15 15.001zm160.513 114.429c0 63.095-51.038 114.427-113.771 114.427h-31.742v-228.856h31.742c62.734 0 113.771 51.333 113.771 114.429z"/><path d="m497.872 372.051-14.143-14.142c-2.928-2.93-7.677-2.929-10.606 0s-2.929 7.678.001 10.606l14.142 14.142c12.987 12.989 12.989 34.012 0 47.001l-57.606 57.607c-12.99 12.988-34.011 12.991-47.002 0l-57.607-57.607c-12.965-12.965-12.965-34.037 0-47.001l57.608-57.608c13.06-13.062 34.149-12.852 47 0l22.252 22.252c2.93 2.929 7.678 2.929 10.607 0s2.929-7.678 0-10.606l-22.253-22.252c-4.671-4.671-10.14-8.255-16.098-10.646 29.779-157.587-91.033-303.797-250.866-303.797h-97.059c-4.142 0-7.5 3.372-7.5 7.514s3.358 7.5 7.5 7.5h97.059c149.537 0 263.998 136.56 236.223 285.449-14.281-.975-27.677 4.184-37.473 13.98l-57.607 57.607c-18.828 18.828-18.827 49.387 0 68.214l6.073 6.073c-42.005 32.711-93.954 50.649-147.215 50.649h-102.523c-30.757.001-55.779-25.022-55.779-55.778v-370.415c0-22.758 13.609-43.032 34.672-51.649 3.834-1.568 5.67-5.948 4.102-9.781s-5.945-5.67-9.781-4.102c-26.725 10.933-43.993 36.656-43.993 65.532v370.415c0 39.027 31.751 70.792 70.779 70.792h102.521c57.22 0 113.015-19.49 157.901-54.976l40.849 40.849c9.11 9.11 21.224 14.127 34.107 14.127s24.996-5.017 34.107-14.127l57.607-57.607c9.109-9.109 14.127-21.223 14.127-34.107.002-12.846-5.016-24.997-14.126-34.108z"/><circle cx="406.158" cy="406.158" r="10.184"/><path d="m413.359 341.35c-3.977-3.977-10.425-3.977-14.402 0s-3.977 10.425 0 14.402 10.425 3.977 14.402 0c3.977-3.978 3.977-10.426 0-14.402z"/><path d="m341.35 398.957c-3.977 3.977-3.977 10.425 0 14.402s10.425 3.977 14.402 0 3.977-10.425 0-14.402c-3.978-3.977-10.426-3.977-14.402 0z"/><path d="m456.564 413.359c3.977 3.977 10.425 3.977 14.402 0s3.977-10.425 0-14.402-10.425-3.977-14.402 0-3.977 10.425 0 14.402z"/><path d="m398.957 456.564c-3.977 3.977-3.977 10.425 0 14.402s10.425 3.977 14.402 0 3.977-10.425 0-14.402-10.425-3.977-14.402 0z"/></g></svg>