<svg height="512" viewBox="0 0 52 60" width="512" xmlns="http://www.w3.org/2000/svg"><g id="Page-1" fill="none" fill-rule="evenodd"><g id="027---JAVA-file" fill-rule="nonzero"><path id="Shape" d="m47 9v26h-42v-32c.0032948-1.10320187.89679813-1.9967052 2-2h32z" fill="#f5f5f5"/><path id="Rectangle-path" d="m44 9h3v26h-3z" fill="#cfd8dc"/><path id="Shape" d="m47 53v4c-.0032948 1.1032019-.8967981 1.9967052-2 2h-38c-1.10320187-.0032948-1.9967052-.8967981-2-2v-4z" fill="#f5f5f5"/><path id="Shape" d="m44 53v4c-.0032948 1.1032019-.8967981 1.9967052-2 2h3c1.1032019-.0032948 1.9967052-.8967981 2-2v-4z" fill="#cfd8dc"/><path id="Shape" d="m39 1v6c0 1.1045695.8954305 2 2 2h6z" fill="#cfd8dc"/><path id="Shape" d="m51 33v18c-.0032948 1.1032019-.8967981 1.9967052-2 2h-46c-1.10320187-.0032948-1.9967052-.8967981-2-2v-18c.0032948 1.1032019.89679813 1.9967052 2 2h46c1.1011688-.0081672 1.9918328-.8988312 2-2z" fill="#ff9801"/><path id="Shape" d="m50.41 34.41c-.3704612.3798589-.8794095.5928231-1.41.59h-1v16c-.0032948 1.1032019-.8967981 1.9967052-2 2h3c1.1032019-.0032948 1.9967052-.8967981 2-2l.0000277-18c.0027954.5305905-.2101688 1.0395388-.5900277 1.41z" fill="#f57c00"/><path id="Shape" d="m5 31v4h-2c-1.10320187-.0032948-1.9967052-.8967981-2-2 .00816722-1.1011688.89883122-1.9918328 2-2z" fill="#f57c00"/><path id="Shape" d="m51 33c-.0081672 1.1011688-.8988312 1.9918328-2 2h-2v-4h2c1.1032019.0032948 1.9967052.8967981 2 2z" fill="#f57c00"/><g fill="#000"><path id="Shape" d="m47.707 8.293-8-8c-.1874927-.18754937-.4418052-.29294336-.707-.293h-32c-1.65685425 0-3 1.34314575-3 3v27h-1c-1.65685425 0-3 1.3431458-3 3v18c0 1.6568542 1.34314575 3 3 3h1v3c0 1.6568542 1.34314575 3 3 3h38c1.6568542 0 3-1.3431458 3-3v-3h1c1.6568542 0 3-1.3431458 3-3v-18c0-1.6568542-1.3431458-3-3-3h-1v-21c-.0000566-.26519481-.1054506-.51950727-.293-.707zm-7.707-4.879 4.586 4.586h-3.586c-.5522847 0-1-.44771525-1-1zm-34-.414c0-.55228475.44771525-1 1-1h31v5c0 1.65685425 1.3431458 3 3 3h5v24h-40zm-3 29h1v2h-1c-.55228475 0-1-.4477153-1-1s.44771525-1 1-1zm43 25c0 .5522847-.4477153 1-1 1h-38c-.55228475 0-1-.4477153-1-1v-3h40zm3-5h-46c-.55228475 0-1-.4477153-1-1v-15.184c.32025698.1184378.65856033.1806856 1 .184h46c.3414397-.0033144.679743-.0655622 1-.184v15.184c0 .5522847-.4477153 1-1 1zm0-20c.5522847 0 1 .4477153 1 1s-.4477153 1-1 1h-1v-2z"/><path id="Shape" d="m16 23c.5522847 0 1 .4477153 1 1v2c0 1.6568542 1.3431458 3 3 3 .5522847 0 1-.4477153 1-1s-.4477153-1-1-1-1-.4477153-1-1v-2c.0006597-.7384319-.2722291-1.4509351-.766-2 .4937709-.5490649.7666597-1.2615681.766-2v-2c0-.5522847.4477153-1 1-1s1-.4477153 1-1-.4477153-1-1-1c-1.6568542 0-3 1.3431458-3 3v2c0 .5522847-.4477153 1-1 1s-1 .4477153-1 1 .4477153 1 1 1z"/><path id="Shape" d="m33 26c0 .5522847-.4477153 1-1 1s-1 .4477153-1 1 .4477153 1 1 1c1.6568542 0 3-1.3431458 3-3v-2c0-.5522847.4477153-1 1-1s1-.4477153 1-1-.4477153-1-1-1-1-.4477153-1-1v-2c0-1.6568542-1.3431458-3-3-3-.5522847 0-1 .4477153-1 1s.4477153 1 1 1 1 .4477153 1 1v2c-.0006597.7384319.2722291 1.4509351.766 2-.4937709.5490649-.7666597 1.2615681-.766 2z"/><circle id="Oval" cx="26" cy="22" r="1"/><path id="Shape" d="m33.287 38.042c-.2540775-.0761356-.5279942-.0482117-.7614817.0776278-.2334876.1258395-.4074165.3392846-.4835183.5933722l-2.042 6.807-2.042-6.807c-.1585057-.5290888-.7159112-.8295057-1.245-.671s-.8295057.7159112-.671 1.245l3 10c.1267034.4232751.5161679.7132318.958.7132318s.8312966-.2899567.958-.7132318l3-10c.0761356-.2540775.0482117-.5279942-.0776278-.7614817-.1258395-.2334876-.3392846-.4074165-.5933722-.4835183z"/><path id="Shape" d="m15 38h-6c-.55228475 0-1 .4477153-1 1s.44771525 1 1 1h2v7c0 .5522847-.4477153 1-1 1h-1c-.55228475 0-1 .4477153-1 1s.44771525 1 1 1h1c1.6568542 0 3-1.3431458 3-3v-7h2c.5522847 0 1-.4477153 1-1s-.4477153-1-1-1z"/><path id="Shape" d="m24.553 28.9c.2373497.1186659.5121326.1381283.7638386.0541012.251706-.084027.4596935-.2646527.5781614-.5021012l1-2c.2468713-.4942949.0462949-1.0951287-.448-1.342s-1.0951287-.0462949-1.342.448l-1 2c-.1186659.2373497-.1381283.5121326-.0541012.7638386.084027.251706.2646527.4596935.5021012.5781614z"/><path id="Shape" d="m20.5 38c-1.9329966 0-3.5 1.5670034-3.5 3.5v7.5c0 .5522847.4477153 1 1 1s1-.4477153 1-1v-3h3v3c0 .5522847.4477153 1 1 1s1-.4477153 1-1v-7.5c0-1.9329966-1.5670034-3.5-3.5-3.5zm-1.5 6v-2.5c0-.8284271.6715729-1.5 1.5-1.5s1.5.6715729 1.5 1.5v2.5z"/><path id="Shape" d="m39.5 38c-1.9329966 0-3.5 1.5670034-3.5 3.5v7.5c0 .5522847.4477153 1 1 1s1-.4477153 1-1v-3h3v3c0 .5522847.4477153 1 1 1s1-.4477153 1-1v-7.5c0-1.9329966-1.5670034-3.5-3.5-3.5zm-1.5 6v-2.5c0-.8284271.6715729-1.5 1.5-1.5s1.5.6715729 1.5 1.5v2.5z"/></g></g></g></svg>